<svg width="208" height="208" viewBox="0 0 208 208" fill="none" xmlns="http://www.w3.org/2000/svg">
<g filter="url(#filter0_d_4_2)">
<circle cx="104" cy="100" r="100" fill="white"/>
<circle cx="104" cy="100" r="99.5" stroke="#3AE374"/>
</g>
<path d="M104 183.334C91.4005 183.369 78.9602 180.518 67.6333 175C63.4879 172.984 59.5161 170.628 55.7583 167.958L54.6167 167.125C44.2818 159.497 35.8323 149.602 29.9167 138.2C23.7978 126.399 20.6242 113.293 20.6662 100C20.6662 53.9763 57.9763 16.6667 104 16.6667C150.024 16.6667 187.334 53.9763 187.334 100C187.375 113.287 184.205 126.386 178.092 138.183C172.184 149.579 163.747 159.47 153.425 167.1C149.531 169.95 145.399 172.459 141.075 174.6L140.408 174.933C129.074 180.481 116.619 183.355 104 183.334ZM104 141.666C91.5123 141.642 80.0639 148.617 74.3583 159.725C93.0366 168.977 114.963 168.977 133.642 159.725V159.683C127.929 148.587 116.48 141.628 104 141.666ZM104 125C122.051 125.024 138.695 134.751 147.575 150.467L147.7 150.358L147.817 150.258L147.675 150.383L147.592 150.45C168.667 132.243 176.202 102.853 166.489 76.7509C156.775 50.649 131.859 33.3359 104.008 33.3359C76.1576 33.3359 51.2416 50.649 41.5279 76.7509C31.8142 102.853 39.35 132.243 60.425 150.45C69.3105 134.742 85.953 125.022 104 125ZM104 116.667C85.5905 116.667 70.6667 101.743 70.6667 83.3333C70.6667 64.9238 85.5905 50 104 50C122.41 50 137.333 64.9238 137.333 83.3333C137.333 92.1739 133.821 100.652 127.57 106.904C121.319 113.155 112.841 116.667 104 116.667ZM104 66.6667C94.7953 66.6667 87.3333 74.1286 87.3333 83.3333C87.3333 92.5381 94.7953 100 104 100C113.205 100 120.667 92.5381 120.667 83.3333C120.667 74.1286 113.205 66.6667 104 66.6667Z" fill="#32FF7E"/>
<defs>
<filter id="filter0_d_4_2" x="0" y="0" width="208" height="208" filterUnits="userSpaceOnUse" color-interpolation-filters="sRGB">
<feFlood flood-opacity="0" result="BackgroundImageFix"/>
<feColorMatrix in="SourceAlpha" type="matrix" values="0 0 0 0 0 0 0 0 0 0 0 0 0 0 0 0 0 0 127 0" result="hardAlpha"/>
<feOffset dy="4"/>
<feGaussianBlur stdDeviation="2"/>
<feComposite in2="hardAlpha" operator="out"/>
<feColorMatrix type="matrix" values="0 0 0 0 0 0 0 0 0 0 0 0 0 0 0 0 0 0 0.25 0"/>
<feBlend mode="normal" in2="BackgroundImageFix" result="effect1_dropShadow_4_2"/>
<feBlend mode="normal" in="SourceGraphic" in2="effect1_dropShadow_4_2" result="shape"/>
</filter>
</defs>
</svg>
